<svg width="16" height="16" viewBox="0 0 11 11" fill="none" xmlns="http://www.w3.org/2000/svg">
<rect x="0.266752" y="0.684171" width="9.82171" height="9.82171" stroke="white" stroke-width="0.316829"/>
<g clip-path="url(#clip0_32_436)">
<path d="M5.13851 4.31425C4.42643 4.31425 3.85207 4.88566 3.85207 5.59407C3.85207 6.30248 4.42643 6.87389 5.13851 6.87389C5.85059 6.87389 6.42496 6.30248 6.42496 5.59407C6.42496 4.88566 5.85059 4.31425 5.13851 4.31425ZM5.13851 6.42612C4.67835 6.42612 4.30215 6.05298 4.30215 5.59407C4.30215 5.13516 4.67723 4.76202 5.13851 4.76202C5.5998 4.76202 5.97487 5.13516 5.97487 5.59407C5.97487 6.05298 5.59868 6.42612 5.13851 6.42612ZM6.77764 4.2619C6.77764 4.42787 6.64328 4.56042 6.47758 4.56042C6.31076 4.56042 6.17752 4.42675 6.17752 4.2619C6.17752 4.09705 6.31187 3.96339 6.47758 3.96339C6.64328 3.96339 6.77764 4.09705 6.77764 4.2619ZM7.62967 4.56487C7.61064 4.165 7.51883 3.81079 7.22437 3.51896C6.93103 3.22713 6.57499 3.1358 6.17304 3.11575C5.75878 3.09236 4.51712 3.09236 4.10286 3.11575C3.70204 3.13468 3.346 3.22602 3.05154 3.51785C2.75708 3.80968 2.66639 4.16388 2.64624 4.56376C2.62272 4.97588 2.62272 6.21114 2.64624 6.62327C2.66527 7.02314 2.75708 7.37735 3.05154 7.66918C3.346 7.96101 3.70092 8.05234 4.10286 8.07239C4.51712 8.09578 5.75878 8.09578 6.17304 8.07239C6.57499 8.05345 6.93103 7.96212 7.22437 7.66918C7.51771 7.37735 7.60952 7.02314 7.62967 6.62327C7.65318 6.21114 7.65318 4.977 7.62967 4.56487ZM7.09449 7.06547C7.00716 7.28378 6.8381 7.45197 6.61753 7.53997C6.28724 7.67029 5.50351 7.64022 5.13851 7.64022C4.77352 7.64022 3.98866 7.66918 3.65949 7.53997C3.44005 7.45309 3.27098 7.2849 3.18253 7.06547C3.05154 6.73688 3.08177 5.95719 3.08177 5.59407C3.08177 5.23095 3.05266 4.45014 3.18253 4.12267C3.26986 3.90436 3.43893 3.73616 3.65949 3.64817C3.98978 3.51785 4.77352 3.54792 5.13851 3.54792C5.50351 3.54792 6.28836 3.51896 6.61753 3.64817C6.83698 3.73505 7.00604 3.90324 7.09449 4.12267C7.22549 4.45126 7.19526 5.23095 7.19526 5.59407C7.19526 5.95719 7.22549 6.738 7.09449 7.06547Z" fill="white"/>
</g>
<defs>
<clipPath id="clip0_32_436">
<rect width="5.06927" height="5.70292" fill="white" transform="translate(2.64288 2.74362)"/>
</clipPath>
</defs>
</svg>
