<svg width="16" height="16" viewBox="0 0 12 11" fill="none" xmlns="http://www.w3.org/2000/svg">
<rect x="1.05902" y="0.684171" width="9.82171" height="9.82171" stroke="white" stroke-width="0.316829"/>
<g clip-path="url(#clip0_32_431)">
<path d="M4.56061 7.8129V4.60643H3.48523V7.8129H4.56061ZM4.02306 4.16838C4.39806 4.16838 4.63148 3.92216 4.63148 3.61447C4.6245 3.29984 4.39808 3.06046 4.03018 3.06046C3.66233 3.06046 3.42178 3.29985 3.42178 3.61447C3.42178 3.92218 3.65515 4.16838 4.01604 4.16838H4.02303H4.02306ZM5.15583 7.8129H6.23121V6.02225C6.23121 5.92642 6.2382 5.83068 6.26659 5.76218C6.34434 5.57071 6.52128 5.3724 6.81834 5.3724C7.20748 5.3724 7.36315 5.66644 7.36315 6.09749V7.81287H8.43847V5.97432C8.43847 4.98942 7.90793 4.53115 7.2004 4.53115C6.62027 4.53115 6.36556 4.85252 6.22405 5.07141H6.23123V4.60637H5.15585C5.16997 4.90724 5.15585 7.81283 5.15585 7.81283L5.15583 7.8129Z" fill="white"/>
</g>
<defs>
<clipPath id="clip0_32_431">
<rect width="5.06927" height="4.75244" fill="white" transform="translate(3.43518 3.06049)"/>
</clipPath>
</defs>
</svg>
