<svg width="16" height="16" viewBox="0 0 11 11" fill="none" xmlns="http://www.w3.org/2000/svg">
<rect x="0.851133" y="0.684171" width="9.82171" height="9.82171" stroke="white" stroke-width="0.316829"/>
<g clip-path="url(#clip0_32_426)">
<path d="M8.54347 3.91755C8.33216 4.00768 8.10803 4.06684 7.87853 4.09306C8.11758 3.95511 8.30113 3.73666 8.38756 3.47638C8.16031 3.60622 7.91169 3.6977 7.65242 3.74687C7.44123 3.53025 7.14037 3.39487 6.80737 3.39487C6.16801 3.39487 5.64963 3.89395 5.64963 4.5095C5.64963 4.59687 5.65988 4.68194 5.67961 4.76354C4.71745 4.71704 3.86441 4.27329 3.29339 3.5989C3.19376 3.76353 3.13667 3.95503 3.13667 4.15928C3.13667 4.546 3.34107 4.88716 3.6517 5.08706C3.46785 5.08152 3.28805 5.03371 3.1273 4.94763C3.12724 4.9523 3.12724 4.95696 3.12724 4.96165C3.12724 5.50172 3.5263 5.95224 4.05589 6.05464C3.88541 6.09928 3.70659 6.10581 3.53308 6.07374C3.6804 6.51658 4.10795 6.83883 4.61454 6.84785C4.21832 7.1468 3.71912 7.32501 3.17674 7.32501C3.08328 7.32501 2.99115 7.31972 2.90057 7.30943C3.41291 7.62569 4.02144 7.81023 4.67522 7.81023C6.80469 7.81023 7.96913 6.11173 7.96913 4.63877C7.96913 4.59042 7.96803 4.54235 7.96578 4.49456C8.19243 4.3368 8.38805 4.14141 8.54347 3.91755Z" fill="white"/>
</g>
<defs>
<clipPath id="clip0_32_426">
<rect width="5.70292" height="4.43561" fill="white" transform="translate(2.91058 3.37726)"/>
</clipPath>
</defs>
</svg>
