<svg width="8" height="8" viewBox="0 0 8 8" fill="none" xmlns="http://www.w3.org/2000/svg">
<path d="M3.89821 1.06005C3.94563 0.914098 4.15211 0.914098 4.19953 1.06005L4.86689 3.11398C4.8881 3.17925 4.94892 3.22344 5.01755 3.22344L7.17719 3.22344C7.33065 3.22344 7.39445 3.41982 7.2703 3.51002L5.52312 4.77942C5.4676 4.81976 5.44437 4.89126 5.46557 4.95653L6.13294 7.01046C6.18036 7.15641 6.01331 7.27778 5.88916 7.18758L4.14198 5.91818C4.08646 5.87784 4.01128 5.87784 3.95575 5.91818L2.20857 7.18758C2.08442 7.27778 1.91738 7.15641 1.9648 7.01046L2.63216 4.95653C2.65337 4.89126 2.63014 4.81976 2.57461 4.77942L0.827435 3.51002C0.703283 3.41982 0.767088 3.22344 0.920548 3.22344L3.08018 3.22344C3.14881 3.22344 3.20964 3.17925 3.23084 3.11398L3.89821 1.06005Z" fill="#F1CC4A"/>
</svg>
